<svg width="512" height="512" xmlns="http://www.w3.org/2000/svg">
    <rect width="512" height="512" fill="#16a34a" rx="80"/>
    <path d="M 256 100 A 100 100 0 1 0 256 300 A 80 80 0 1 1 256 100 Z" fill="#ffffff"/>
    <path d="M 340 180 L 355 210 L 387 215 L 363 238 L 369 270 L 340 255 L 311 270 L 317 238 L 293 215 L 325 210 Z" fill="#ffffff"/>
    <rect x="180" y="330" width="152" height="120" fill="#ffffff" rx="4"/>
    <rect x="186" y="336" width="140" height="108" fill="#16a34a" rx="2"/>
    <line x1="256" y1="336" x2="256" y2="444" stroke="#ffffff" stroke-width="2"/>
    <line x1="200" y1="360" x2="240" y2="360" stroke="#ffffff" stroke-width="2"/>
    <line x1="200" y1="380" x2="240" y2="380" stroke="#ffffff" stroke-width="2"/>
    <line x1="200" y1="400" x2="240" y2="400" stroke="#ffffff" stroke-width="2"/>
    <line x1="272" y1="360" x2="312" y2="360" stroke="#ffffff" stroke-width="2"/>
    <line x1="272" y1="380" x2="312" y2="380" stroke="#ffffff" stroke-width="2"/>
    <line x1="272" y1="400" x2="312" y2="400" stroke="#ffffff" stroke-width="2"/>
  </svg>