<svg width="512" height="512" viewBox="0 0 512 512" xmlns="http://www.w3.org/2000/svg">
  <!-- Background -->
  <rect width="512" height="512" fill="#16a34a" rx="80"/>

  <!-- Crescent Moon -->
  <path d="M 256 100 A 100 100 0 1 0 256 300 A 80 80 0 1 1 256 100 Z" fill="#ffffff"/>

  <!-- Star -->
  <path d="M 340 180 L 355 210 L 387 215 L 363 238 L 369 270 L 340 255 L 311 270 L 317 238 L 293 215 L 325 210 Z" fill="#ffffff"/>

  <!-- Book/Quran Icon -->
  <g transform="translate(0, 80)">
    <rect x="180" y="250" width="152" height="120" fill="#ffffff" rx="4"/>
    <rect x="186" y="256" width="140" height="108" fill="#16a34a" rx="2"/>
    <line x1="256" y1="256" x2="256" y2="364" stroke="#ffffff" stroke-width="2"/>
    <line x1="200" y1="280" x2="240" y2="280" stroke="#ffffff" stroke-width="2"/>
    <line x1="200" y1="300" x2="240" y2="300" stroke="#ffffff" stroke-width="2"/>
    <line x1="200" y1="320" x2="240" y2="320" stroke="#ffffff" stroke-width="2"/>
    <line x1="272" y1="280" x2="312" y2="280" stroke="#ffffff" stroke-width="2"/>
    <line x1="272" y1="300" x2="312" y2="300" stroke="#ffffff" stroke-width="2"/>
    <line x1="272" y1="320" x2="312" y2="320" stroke="#ffffff" stroke-width="2"/>
  </g>

  <!-- App Name -->
  <text x="256" y="450" font-family="Arial, sans-serif" font-size="32" font-weight="bold" fill="#ffffff" text-anchor="middle">Islamic Nexus</text>
</svg>
